# xmcd
#
# Track frame offsets: 
#        150
#        16942
#        34861
#        47636
#        65706
#        86892
#        102631
#        122133
#        138141
#        159035
#        182657
#
# Disc length: 2777 seconds
#
# Revision: 0
# Processed by: cddbd v1.5.2PL0 Copyright (c) Steve Scherf et al.
# Submitted via: ExactAudioCopy v0.99pb4
#
DISCID=8f0ad70b
DTITLE=Super 400 - 3 And The Beast
DYEAR=2007
DGENRE=Hard Rock
TTITLE0=Emergency
TTITLE1=Push Back Now
TTITLE2=I Bet My Soul On You
TTITLE3=The Leaves
TTITLE4=Standby
TTITLE5=The Brave Path To You
TTITLE6=One Of The Unsinkable
TTITLE7=It's Gonna Burst
TTITLE8=Faces To The Sun
TTITLE9=All Is Right
TTITLE10=I Could Be Reborn
EXTD=
EXTT0=
EXTT1=
EXTT2=
EXTT3=
EXTT4=
EXTT5=
EXTT6=
EXTT7=
EXTT8=
EXTT9=
EXTT10=
PLAYORDER=
